<svg width="960" height="600" version="1.1" xmlns="http://www.w3.org/2000/svg"><g></g><g transform="translate(480,300)scale(1.25,1.25)"><text text-anchor="middle" transform="translate(64,-160)rotate(59.99999955470795)scale(0.9999999865388264,0.9999999865388264)" style="font-size: 28px; font-family: Impact; fill: rgb(231, 150, 156);">line</text><text text-anchor="middle" transform="translate(-118,82)rotate(46.66666783970208)skewX(-3.180554664025155e-15)scale(1.0000000054828053,1.0000000054828053)" style="font-size: 19px; font-family: Impact; fill: rgb(181, 207, 107);">via</text><text text-anchor="middle" transform="translate(-227,98)rotate(-59.99999955470795)skewX(0)scale(0.9999999865388264,0.9999999865388264)" style="font-size: 31px; font-family: Impact; fill: rgb(82, 84, 163);"></text><text text-anchor="middle" transform="translate(-157,15)rotate(6.666666779530992)scale(0.9999999721860654,0.9999999721860654)" style="font-size: 40px; font-family: Impact; fill: rgb(107, 110, 207);">gawk</text><text text-anchor="middle" transform="translate(12,89)rotate(-20.00000065939313)skewX(0)scale(0.9999999995881268,0.9999999995881268)" style="font-size: 100px; font-family: Impact; fill: rgb(156, 158, 222);">AWK</text><text text-anchor="middle" transform="translate(-226,22)rotate(-59.99999955470795)skewX(0)scale(0.9999999865388264,0.9999999865388264)" style="font-size: 38px; font-family: Impact; fill: rgb(99, 121, 57);">value</text><text text-anchor="middle" transform="translate(-259,12)rotate(-46.66666783970208)skewX(3.180554664025155e-15)scale(1.0000000054828053,1.0000000054828053)" style="font-size: 21px; font-family: Impact; fill: rgb(181, 207, 107);">file</text><text text-anchor="middle" transform="translate(-251,-107)rotate(46.66666783970208)skewX(-3.180554664025155e-15)scale(1.0000000054828053,1.0000000054828053)" style="font-size: 33px; font-family: Impact; fill: rgb(231, 186, 82);">program</text><text text-anchor="middle" transform="translate(-35,-68)rotate(-46.66666783970208)skewX(3.180554664025155e-15)scale(1.0000000054828053,1.0000000054828053)" style="font-size: 28px; font-family: Impact; fill: rgb(231, 203, 148);">input</text><text text-anchor="middle" transform="translate(25,-152)rotate(6.666666779530992)skewX(0)scale(0.9999999721860654,0.9999999721860654)" style="font-size: 28px; font-family: Impact; fill: rgb(173, 73, 74);">may</text><text text-anchor="middle" transform="translate(-73,-64)rotate(-59.99999955470795)skewX(0)scale(0.9999999865388264,0.9999999865388264)" style="font-size: 28px; font-family: Impact; fill: rgb(206, 109, 189);">option</text><text text-anchor="middle" transform="translate(151,-17)rotate(-59.99999955470794)skewX(0)scale(0.9999999865388264,0.9999999865388264)" style="font-size: 19px; font-family: Impact; fill: rgb(222, 158, 214);">f</text><text text-anchor="middle" transform="translate(67,129)rotate(46.66666783970208)skewX(-3.180554664025155e-15)scale(1.0000000054828053,1.0000000054828053)" style="font-size: 38px; font-family: Impact; fill: rgb(107, 110, 207);">fields</text><text text-anchor="middle" transform="translate(215,134)rotate(-59.99999955470795)skewX(0)scale(0.9999999865388264,0.9999999865388264)" style="font-size: 21px; font-family: Impact; fill: rgb(99, 121, 57);">also</text><text text-anchor="middle" transform="translate(164,109)rotate(46.66666783970208)skewX(-3.180554664025155e-15)scale(1.0000000054828053,1.0000000054828053)" style="font-size: 42px; font-family: Impact; fill: rgb(140, 162, 82);">FS</text><text text-anchor="middle" transform="translate(-35,-150)rotate(6.6666667795309955)scale(0.9999999721860654,0.9999999721860654)" style="font-size: 19px; font-family: Impact; fill: rgb(231, 203, 148);">see</text><text text-anchor="middle" transform="translate(-22,-36)rotate(6.666666779530992)skewX(0)scale(0.9999999721860654,0.9999999721860654)" style="font-size: 19px; font-family: Impact; fill: rgb(173, 73, 74);">GNU</text><text text-anchor="middle" transform="translate(111,-146)rotate(33.33333286903525)skewX(3.180554579844494e-15)scale(1.0000000319500955,1.0000000319500955)" style="font-size: 47px; font-family: Impact; fill: rgb(123, 65, 115);">$0</text><text text-anchor="middle" transform="translate(121,107)rotate(-33.33333286903525)skewX(-3.180554579844494e-15)scale(1.0000000319500955,1.0000000319500955)" style="font-size: 39px; font-family: Impact; fill: rgb(222, 158, 214);">RS</text><text text-anchor="middle" transform="translate(-156,-114)rotate(33.33333286903525)skewX(3.180554579844494e-15)scale(1.0000000319500955,1.0000000319500955)" style="font-size: 39px; font-family: Impact; fill: rgb(107, 110, 207);">options</text><text text-anchor="middle" transform="translate(185,16)rotate(-33.33333286903525)skewX(-3.180554579844494e-15)scale(1.0000000319500955,1.0000000319500955)" style="font-size: 29px; font-family: Impact; fill: rgb(156, 158, 222);">variable</text><text text-anchor="middle" transform="translate(208,-139)rotate(-46.66666783970208)skewX(3.180554664025155e-15)scale(1.0000000054828053,1.0000000054828053)" style="font-size: 26px; font-family: Impact; fill: rgb(99, 121, 57);">field</text><text text-anchor="middle" transform="translate(8,-51)rotate(20.00000065939313)scale(0.9999999995881268,0.9999999995881268)" style="font-size: 23px; font-family: Impact; fill: rgb(140, 162, 82);">values</text><text text-anchor="middle" transform="translate(-182,-25)rotate(-33.33333286903525)skewX(-3.180554579844494e-15)scale(1.0000000319500955,1.0000000319500955)" style="font-size: 21px; font-family: Impact; fill: rgb(181, 207, 107);">set</text><text text-anchor="middle" transform="translate(-71,61)rotate(46.66666783970208)skewX(-3.180554664025155e-15)scale(1.0000000054828053,1.0000000054828053)" style="font-size: 21px; font-family: Impact; fill: rgb(82, 84, 163);">single</text><text text-anchor="middle" transform="translate(238,95)rotate(-46.66666783970208)skewX(3.180554664025155e-15)scale(1.0000000054828053,1.0000000054828053)" style="font-size: 21px; font-family: Impact; fill: rgb(206, 219, 156);">first</text><text text-anchor="middle" transform="translate(-153,-156)rotate(-6.666666779530995)skewX(0)scale(0.9999999721860654,0.9999999721860654)" style="font-size: 19px; font-family: Impact; fill: rgb(165, 81, 148);">Text</text><text text-anchor="middle" transform="translate(-224,103)rotate(-20.00000065939313)skewX(0)scale(0.9999999995881268,0.9999999995881268)" style="font-size: 19px; font-family: Impact; fill: rgb(173, 73, 74);">null</text><text text-anchor="middle" transform="translate(126,-10)rotate(46.66666783970208)skewX(-3.180554664025155e-15)scale(1.0000000054828053,1.0000000054828053)" style="font-size: 26px; font-family: Impact; fill: rgb(206, 109, 189);">long</text><text text-anchor="middle" transform="translate(-229,86)rotate(-33.33333286903525)skewX(-3.180554579844494e-15)scale(1.0000000319500955,1.0000000319500955)" style="font-size: 19px; font-family: Impact; fill: rgb(57, 59, 121);">new</text><text text-anchor="middle" transform="translate(-153,-48)rotate(20.00000065939313)skewX(0)scale(0.9999999995881268,0.9999999995881268)" style="font-size: 19px; font-family: Impact; fill: rgb(82, 84, 163);">causes</text><text text-anchor="middle" transform="translate(37,145)rotate(59.99999955470795)skewX(0)scale(0.9999999865388264,0.9999999865388264)" style="font-size: 25px; font-family: Impact; fill: rgb(214, 97, 107);">POSIX</text><text text-anchor="middle" transform="translate(39,-68)rotate(46.66666783970208)skewX(-3.180554664025155e-15)scale(1.0000000054828053,1.0000000054828053)" style="font-size: 21px; font-family: Impact; fill: rgb(231, 203, 148);">useful</text><text text-anchor="middle" transform="translate(-130,94)rotate(59.99999955470795)skewX(0)scale(0.9999999865388264,0.9999999865388264)" style="font-size: 21px; font-family: Impact; fill: rgb(189, 158, 57);">used</text><text text-anchor="middle" transform="translate(178,56)rotate(-6.6666667795309955)scale(0.9999999721860654,0.9999999721860654)" style="font-size: 21px; font-family: Impact; fill: rgb(231, 203, 148);">source</text><text text-anchor="middle" transform="translate(230,55)rotate(-46.66666783970208)skewX(3.180554664025155e-15)scale(1.0000000054828053,1.0000000054828053)" style="font-size: 21px; font-family: Impact; fill: rgb(132, 60, 57);">regular</text><text text-anchor="middle" transform="translate(271,126)rotate(20.00000065939313)skewX(0)scale(0.9999999995881268,0.9999999995881268)" style="font-size: 19px; font-family: Impact; fill: rgb(173, 73, 74);">supplied</text><text text-anchor="middle" transform="translate(15,161)rotate(-59.99999955470795)scale(0.9999999865388264,0.9999999865388264)" style="font-size: 19px; font-family: Impact; fill: rgb(214, 97, 107);">ARGV</text><text text-anchor="middle" transform="translate(167,164)rotate(6.666666779530995)skewX(0)scale(0.9999999721860654,0.9999999721860654)" style="font-size: 19px; font-family: Impact; fill: rgb(123, 65, 115);">multiple</text><text text-anchor="middle" transform="translate(25,-18)rotate(-6.6666667795309955)skewX(0)scale(0.9999999721860654,0.9999999721860654)" style="font-size: 28px; font-family: Impact; fill: rgb(231, 150, 156);">Command</text><text text-anchor="middle" transform="translate(228,20)rotate(-20.00000065939313)skewX(0)scale(0.9999999995881268,0.9999999995881268)" style="font-size: 23px; font-family: Impact; fill: rgb(222, 158, 214);">assigning</text><text text-anchor="middle" transform="translate(147,-41)rotate(59.99999955470795)skewX(0)scale(0.9999999865388264,0.9999999865388264)" style="font-size: 21px; font-family: Impact; fill: rgb(99, 121, 57);">variables</text><text text-anchor="middle" transform="translate(-15,125)rotate(-33.33333286903525)skewX(-3.180554579844494e-15)scale(1.0000000319500955,1.0000000319500955)" style="font-size: 32px; font-family: Impact; fill: rgb(165, 81, 148);">record</text><text text-anchor="middle" transform="translate(-92,-4)rotate(20.00000065939313)skewX(0)scale(0.9999999995881268,0.9999999995881268)" style="font-size: 28px; font-family: Impact; fill: rgb(165, 81, 148);">records</text><text text-anchor="middle" transform="translate(2,-185)rotate(-6.666666779530992)scale(0.9999999721860654,0.9999999721860654)" style="font-size: 26px; font-family: Impact; fill: rgb(206, 219, 156);">character</text><text text-anchor="middle" transform="translate(-73,-197)rotate(-20.00000065939313)scale(0.9999999995881268,0.9999999995881268)" style="font-size: 21px; font-family: Impact; fill: rgb(140, 109, 49);">expression</text><text text-anchor="middle" transform="translate(-170,55)rotate(-6.6666667795309955)skewX(0)scale(0.9999999721860654,0.9999999721860654)" style="font-size: 28px; font-family: Impact; fill: rgb(189, 158, 57);">separated</text><text text-anchor="middle" transform="translate(-270,-62)rotate(6.666666779530992)skewX(0)scale(0.9999999721860654,0.9999999721860654)" style="font-size: 21px; font-family: Impact; fill: rgb(231, 186, 82);">programs</text><text text-anchor="middle" transform="translate(-178,136)rotate(-46.66666783970208)skewX(3.180554664025155e-15)scale(1.0000000054828053,1.0000000054828053)" style="font-size: 21px; font-family: Impact; fill: rgb(140, 162, 82);">string</text><text text-anchor="middle" transform="translate(215,-67)rotate(59.99999955470795)skewX(0)scale(0.9999999865388264,0.9999999865388264)" style="font-size: 19px; font-family: Impact; fill: rgb(231, 150, 156);">arguments</text><text text-anchor="middle" transform="translate(-220,-166)rotate(-33.33333286903525)skewX(-3.180554579844494e-15)scale(1.0000000319500955,1.0000000319500955)" style="font-size: 16px; font-family: Impact; fill: rgb(165, 81, 148);">Language</text><text text-anchor="middle" transform="translate(241,160)rotate(59.99999955470795)skewX(0)scale(0.9999999865388264,0.9999999865388264)" style="font-size: 16px; font-family: Impact; fill: rgb(206, 109, 189);">standard</text><text text-anchor="middle" transform="translate(269,43)rotate(-59.99999955470795)skewX(0)scale(0.9999999865388264,0.9999999865388264)" style="font-size: 16px; font-family: Impact; fill: rgb(57, 59, 121);">version</text><text text-anchor="middle" transform="translate(154,136)rotate(6.666666779530992)skewX(0)scale(0.9999999721860654,0.9999999721860654)" style="font-size: 16px; font-family: Impact; fill: rgb(107, 110, 207);">features</text><text text-anchor="middle" transform="translate(7,8)rotate(-20.00000065939313)scale(0.9999999995881268,0.9999999995881268)" style="font-size: 16px; font-family: Impact; fill: rgb(222, 158, 214);">provides</text><text text-anchor="middle" transform="translate(-288,-98)rotate(-46.66666783970208)skewX(3.180554664025155e-15)scale(1.0000000054828053,1.0000000054828053)" style="font-size: 16px; font-family: Impact; fill: rgb(214, 97, 107);">either</text><text text-anchor="middle" transform="translate(144,-181)rotate(-33.33333286903525)skewX(-3.180554579844494e-15)scale(1.0000000319500955,1.0000000319500955)" style="font-size: 16px; font-family: Impact; fill: rgb(165, 81, 148);">start</text><text text-anchor="middle" transform="translate(250,-45)rotate(59.99999955470795)scale(0.9999999865388264,0.9999999865388264)" style="font-size: 16px; font-family: Impact; fill: rgb(57, 59, 121);">following</text><text text-anchor="middle" transform="translate(119,68)rotate(-20.00000065939313)skewX(0)scale(0.9999999995881268,0.9999999995881268)" style="font-size: 16px; font-family: Impact; fill: rgb(57, 59, 121);">W</text><text text-anchor="middle" transform="translate(-42,-20)rotate(59.99999955470795)scale(0.9999999865388264,0.9999999865388264)" style="font-size: 16px; font-family: Impact; fill: rgb(156, 158, 222);">=</text><text text-anchor="middle" transform="translate(-204,170)rotate(6.666666779530992)skewX(0)scale(0.9999999721860654,0.9999999721860654)" style="font-size: 16px; font-family: Impact; fill: rgb(82, 84, 163);">argument</text><text text-anchor="middle" transform="translate(294,-130)rotate(-59.99999955470795)skewX(0)scale(0.9999999865388264,0.9999999865388264)" style="font-size: 16px; font-family: Impact; fill: rgb(231, 203, 148);">COMPATIBILITY</text><text text-anchor="middle" transform="translate(-67,167)rotate(46.66666783970208)skewX(-3.180554664025155e-15)scale(1.0000000054828053,1.0000000054828053)" style="font-size: 16px; font-family: Impact; fill: rgb(140, 109, 49);">Otherwise</text><text text-anchor="middle" transform="translate(233,-178)rotate(-6.6666667795309955)scale(0.9999999721860654,0.9999999721860654)" style="font-size: 16px; font-family: Impact; fill: rgb(132, 60, 57);">statements</text><text text-anchor="middle" transform="translate(182,-66)rotate(20.00000065939313)scale(0.9999999995881268,0.9999999995881268)" style="font-size: 16px; font-family: Impact; fill: rgb(107, 110, 207);">pattern</text><text text-anchor="middle" transform="translate(-146,148)rotate(46.66666783970208)skewX(-3.180554664025155e-15)scale(1.0000000054828053,1.0000000054828053)" style="font-size: 16px; font-family: Impact; fill: rgb(156, 158, 222);">reads</text><text text-anchor="middle" transform="translate(-23,185)rotate(46.66666783970208)skewX(-3.180554664025155e-15)scale(1.0000000054828053,1.0000000054828053)" style="font-size: 16px; font-family: Impact; fill: rgb(99, 121, 57);">specified</text><text text-anchor="middle" transform="translate(240,-99)rotate(-46.66666783970208)skewX(3.180554664025155e-15)scale(1.0000000054828053,1.0000000054828053)" style="font-size: 16px; font-family: Impact; fill: rgb(156, 158, 222);">path</text><text text-anchor="middle" transform="translate(-263,116)rotate(59.99999955470794)skewX(0)scale(0.9999999865388264,0.9999999865388264)" style="font-size: 16px; font-family: Impact; fill: rgb(140, 162, 82);">named</text><text text-anchor="middle" transform="translate(277,91)rotate(-20.00000065939313)skewX(0)scale(0.9999999995881268,0.9999999995881268)" style="font-size: 16px; font-family: Impact; fill: rgb(140, 162, 82);">executes</text><text text-anchor="middle" transform="translate(-71,23)rotate(6.6666667795309955)skewX(0)scale(0.9999999721860654,0.9999999721860654)" style="font-size: 16px; font-family: Impact; fill: rgb(107, 110, 207);">blocks</text><text text-anchor="middle" transform="translate(31,-105)rotate(6.666666779530992)scale(0.9999999721860654,0.9999999721860654)" style="font-size: 64px; font-family: Impact; fill: rgb(214, 97, 107);">Awesome</text><text text-anchor="middle" transform="translate(-151,-62)rotate(20.00000065939313)scale(0.9999999995881268,0.9999999995881268)" style="font-size: 31px; font-family: Impact; fill: rgb(231, 150, 156);">mawk</text><text text-anchor="middle" transform="translate(80,-63)rotate(33.33333286903525)skewX(3.180554579844494e-15)scale(1.0000000319500955,1.0000000319500955)" style="font-size: 29px; font-family: Impact; fill: rgb(123, 65, 115);">nawk</text><text text-anchor="middle" transform="translate(-126,137)rotate(59.99999955470795)skewX(0)scale(0.9999999865388264,0.9999999865388264)" style="font-size: 26px; font-family: Impact; fill: rgb(165, 81, 148);">goawk</text></g></svg>